:FULLY-SPECIFIED
:FORCE-ALL-JOINTS-BE-3DOF
:DEGREES
136
root 7.84074 16.5258 -26.2735 -11.0151 8.60579 5.85379
lfemur -4.9017 12.9358 -22.1675
ltibia 35.4384 0 0
lfoot -17.8368 -11.0351 0
ltoes 29.5618 0 0
rfemur -102.337 -26.1572 62.7052
rtibia 86.6879 0 0
rfoot 3.03216 19.0183 0
rtoes -28.4509 0 0
lowerback 17.3748 -2.96244 -9.41615
upperback 5.80938 -5.52388 -2.02905
thorax -2.76626 -2.78273 4.17435
lowerneck -12.6916 -0.438907 -0.167165
upperneck 0.683792 -0.705519 3.10896
head 2.44276 -0.242191 0.993633
lclavicle 6.9792e-15 -7.56306e-16 0
lhumerus -41.7461 -21.5077 89.9852
lradius 54.0337 0 0
lwrist 17.8527 0 0
lhand 8.79238 6.41095 0
lfingers 7.12502 0 0
lthumb 33.9795 33.1924 0
rclavicle 6.9792e-15 -7.56306e-16 0
rhumerus -43.5598 -26.4077 -56.8671
rradius 80.4216 0 0
rwrist -38.746 0 0
rhand -15.3154 -27.3808 0
rfingers 7.12502 0 0
rthumb 10.853 -46.019 0
137
root 7.8002 16.5067 -26.2706 -10.691 9.67023 5.6167
lfemur -5.64235 13.275 -21.8041
ltibia 35.9694 0 0
lfoot -17.9654 -12.4782 0
ltoes 30.5082 0 0
rfemur -103.116 -26.068 61.6974
rtibia 90.9818 0 0
rfoot 11.0308 18.1392 0
rtoes -18.2144 0 0
lowerback 17.3264 -3.32604 -9.28816
upperback 5.71127 -5.98144 -2.10749
thorax -2.81147 -3.0009 4.09784
lowerneck -12.5829 -0.554362 -0.343201
upperneck 0.595525 -0.842671 3.3963
head 2.40067 -0.30322 1.10959
lclavicle 1.20118e-14 1.53928e-15 0
lhumerus -41.1906 -22.5558 89.9785
lradius 53.415 0 0
lwrist 17.6404 0 0
lhand 9.70702 6.82094 0
lfingers 7.12502 0 0
lthumb 34.8491 33.4149 0
rclavicle 1.20118e-14 1.53928e-15 0
rhumerus -44.3975 -27.0067 -57.4772
rradius 81.6048 0 0
rwrist -38.283 0 0
rhand -22.0011 -31.2043 0
rfingers 7.12502 0 0
rthumb 4.40466 -41.5061 0
138
root 7.75656 16.4906 -26.2691 -10.3012 10.8413 5.29656
lfemur -6.46758 13.6325 -21.3605
ltibia 36.4659 0 0
lfoot -18.0605 -13.9055 0
ltoes 31.3554 0 0
rfemur -103.507 -25.9786 60.0958
rtibia 95.1496 0 0
rfoot 19.4466 17.2805 0
rtoes -7.59017 0 0
lowerback 17.2258 -3.70366 -9.08505
upperback 5.58763 -6.44094 -2.15169
thorax -2.8591 -3.21907 4.01291
lowerneck -12.4581 -0.701813 -0.51999
upperneck 0.507219 -1.02201 3.68559
head 2.3565 -0.38531 1.22387
lclavicle 1.76081e-14 4.24171e-15 0
lhumerus -40.5613 -23.639 90.0195
lradius 52.6802 0 0
lwrist 17.3036 0 0
lhand 10.7297 7.27866 0
lfingers 7.12502 0 0
lthumb 35.8203 33.6536 0
rclavicle 1.76081e-14 4.24171e-15 0
rhumerus -45.3004 -27.3685 -58.1668
rradius 82.7368 0 0
rwrist -37.2129 0 0
rhand -28.7906 -35.2066 0
rfingers 7.12502 0 0
rthumb -2.1457 -39.2432 0
139
root 7.71085 16.477 -26.2677 -9.86606 12.0381 4.93905
lfemur -7.33491 14.0263 -20.8873
ltibia 36.9199 0 0
lfoot -18.1329 -15.0636 0
ltoes 31.813 0 0
rfemur -103.517 -25.9439 58.1307
rtibia 99.0763 0 0
rfoot 27.2889 16.56 0
rtoes 2.03764 0 0
lowerback 17.0763 -4.06833 -8.85393
upperback 5.44693 -6.87485 -2.16922
thorax -2.90159 -3.42463 3.93223
lowerneck -12.3298 -0.87023 -0.688261
upperneck 0.421593 -1.2298 3.96043
head 2.31328 -0.482043 1.33039
lclavicle 2.36428e-14 6.86589e-15 0
lhumerus -39.9055 -24.7193 90.1131
lradius 51.8991 0 0
lwrist 16.8588 0 0
lhand 11.8305 7.76174 0
lfingers 7.12502 0 0
lthumb 36.8634 33.8839 0
rclavicle 2.36428e-14 6.86589e-15 0
rhumerus -46.2342 -27.5081 -58.9428
rradius 83.8206 0 0
rwrist -35.6602 0 0
rhand -35.0851 -39.0569 0
rfingers 7.12502 0 0
rthumb -8.2195 -42.0635 0
140
root 7.6641 16.4651 -26.2652 -9.40568 13.1794 4.58984
lfemur -8.20189 14.4745 -20.4356
ltibia 37.3233 0 0
lfoot -18.1936 -15.6992 0
ltoes 31.5904 0 0
rfemur -103.154 -26.0186 56.0327
rtibia 102.647 0 0
rfoot 33.5669 16.0951 0
rtoes 9.28496 0 0
lowerback 16.8816 -4.3931 -8.6419
upperback 5.29765 -7.25563 -2.16766
thorax -2.93139 -3.60499 3.86846
lowerneck -12.2105 -1.04859 -0.838738
upperneck 0.341365 -1.4523 4.20447
head 2.27406 -0.586998 1.42307
lclavicle 2.99907e-14 8.92676e-15 0
lhumerus -39.2701 -25.7589 90.2646
lradius 51.1419 0 0
lwrist 16.3225 0 0
lhand 12.9792 8.2478 0
lfingers 7.12502 0 0
lthumb 37.9489 34.0812 0
rclavicle 2.99907e-14 8.92676e-15 0
rhumerus -47.1646 -27.4406 -59.8119
rradius 84.8593 0 0
rwrist -33.7493 0 0
rhand -40.2859 -42.4244 0
rfingers 7.12502 0 0
rthumb -13.2381 -52.8002 0
141
root 7.61732 16.4543 -26.2603 -8.94031 14.1842 4.29462
lfemur -9.02603 14.9952 -20.056
ltibia 37.6681 0 0
lfoot -18.2535 -15.559 0
ltoes 30.3971 0 0
rfemur -102.423 -26.2576 54.0322
rtibia 105.747 0 0
rfoot 37.2901 16.0035 0
rtoes 12.7677 0 0
lowerback 16.645 -4.65099 -8.49605
upperback 5.14825 -7.55574 -2.15459
thorax -2.94093 -3.74757 3.83428
lowerneck -12.1128 -1.22585 -0.962151
upperneck 0.269253 -1.67575 4.40131
head 2.24186 -0.693758 1.49582
lclavicle 3.65267e-14 9.93923e-15 0
lhumerus -38.7025 -26.7199 90.479
lradius 50.4783 0 0
lwrist 15.7112 0 0
lhand 14.146 8.71447 0
lfingers 7.12502 0 0
lthumb 39.0472 34.221 0
rclavicle 3.65267e-14 9.93923e-15 0
rhumerus -48.0572 -27.1809 -60.781
rradius 85.8559 0 0
rwrist -31.6045 0 0
rhand -43.7941 -44.9784 0
rfingers 7.12502 0 0
rthumb -16.623 -74.2865 0
142
root 7.56855 16.4465 -26.2543 -8.44964 15.0562 4.04917
lfemur -9.84689 15.5804 -19.7411
ltibia 37.9777 0 0
lfoot -18.3919 -14.5405 0
ltoes 27.5553 0 0
rfemur -101.268 -26.7656 52.0003
rtibia 108.468 0 0
rfoot 38.1131 16.5542 0
rtoes 11.5965 0 0
lowerback 16.3714 -4.82981 -8.42771
upperback 4.99749 -7.7584 -2.12438
thorax -2.93384 -3.84369 3.8411
lowerneck -12.0357 -1.41441 -1.05668
upperneck 0.188397 -1.91608 4.55102
head 2.21135 -0.810485 1.54747
lclavicle 4.52711e-14 9.65293e-15 0
lhumerus -38.1108 -27.601 90.7267
lradius 49.8252 0 0
lwrist 14.8921 0 0
lhand 15.3771 9.13639 0
lfingers 7.12502 0 0
lthumb 40.2031 34.2736 0
rclavicle 4.52711e-14 9.65293e-15 0
rhumerus -48.9684 -26.5766 -61.9378
rradius 86.7882 0 0
rwrist -28.7852 0 0
rhand -45.9306 -47.128 0
rfingers 7.12502 0 0
rthumb -18.6798 -112.239 0
